<svg width="16" height="16" viewBox="0 0 16 16" xmlns="http://www.w3.org/2000/svg"><path transform="translate(14 2) rotate(45) translate(0 1.5) scale(1)" fill="#fc7f7f" d="M-4 1c0-2 8-2 8 0 0 4-.5 5-1 7h-1l-.5 2h-3l-.5-2h-1c-.5-2-1-3-1-7"/><path transform="rotate(45 8 8)" fill="none" stroke="#fc7f7f" stroke-width="2" stroke-linecap="round" stroke-linejoin="round" d="m7.98 12.937A10 10 0 0 0 8.047 16.521"/><path transform="rotate(45 8 8)" fill="none" stroke="#fc7f7f" stroke-width="2" stroke-linecap="round" stroke-linejoin="round" d="m4.846 11.066A3 3 0 0 1 4.486 13.139"/><path transform="rotate(45 8 8)" fill="none" stroke="#fc7f7f" stroke-width="2" stroke-linecap="round" stroke-linejoin="round" d="m11.045 11.133A3 3 0 0 0 11.631 13.342"/></svg>
